#!OML:ASF I:\Actors\actors\Patient Classification 2\Patient 1\Session 1\actor1.ASF
:FULLY-SPECIFIED
:DEGREES
681
root -0.551656 18.7018 5.85587 2.88546 -2.78989 -2.30805
lowerback 1.20015 1.10233 -0.523
upperback -1.86258 1.46874 0.451935
thorax -2.6078 0.748186 0.705652
lowerneck -12.4717 -2.45328 -2.77494
upperneck 27.1855 -3.97078 3.97546
head 10.957 -1.62426 1.39462
rclavicle 1.43358e-014 3.97569e-016
rhumerus -47.2951 9.09163 -90.4963
rradius 73.3961
rwrist 5.83261
rhand -2.79977 -46.633
rfingers 7.12502
rthumb 22.9061 -435.292
lclavicle 1.43358e-014 3.97569e-016
lhumerus -47.7162 -15.1037 94.4935
lradius 69.3018
lwrist 13.2589
lhand -11.3187 -22.832
lfingers 7.12502
lthumb 14.7135 6.62582
rfemur 0 0 0
rtibia 0
rfoot 0 0
rtoes 0
lfemur -4.93254 -7.22977 -12.754
ltibia 22.4217
lfoot -25.3216 16.5544
ltoes -54.1618
682
root -0.55526 18.6994 5.86577 2.85626 -2.75723 -2.30184
lowerback 1.10497 1.09529 -0.540757
upperback -1.87601 1.46093 0.525511
thorax -2.57032 0.745398 0.793137
lowerneck -12.4538 -2.4214 -2.57635
upperneck 27.1128 -3.88545 3.67581
head 10.9115 -1.60161 1.26294
rclavicle 4.3818e-014 -1.19271e-015
rhumerus -47.7364 7.91622 -90.1096
rradius 71.8851
rwrist 6.62976
rhand -3.22018 -47.2831
rfingers 7.12502
rthumb 22.5026 -435.992
lclavicle 4.3818e-014 -1.19271e-015
lhumerus -48.1878 -13.793 94.5353
lradius 67.9795
lwrist 13.6201
lhand -11.913 -22.7192
lfingers 7.12502
lthumb 14.1408 6.7796
rfemur 0 0 0
rtibia 0
rfoot 0 0
rtoes 0
lfemur -4.85102 -7.2511 -12.7572
ltibia 22.401
lfoot -25.3861 16.5307
ltoes -54.1881
683
root -0.556888 18.6959 5.8772 2.79243 -2.78175 -2.24153
lowerback 1.03591 1.08989 -0.590638
upperback -1.89096 1.45402 0.578398
thorax -2.5494 0.743497 0.876782
lowerneck -12.4722 -2.383 -2.41166
upperneck 27.1114 -3.80275 3.4371
head 10.9027 -1.57538 1.15907
rclavicle 1.56077e-014 1.41137e-014
rhumerus -48.1872 6.93359 -89.9007
rradius 69.9284
rwrist 6.69679
rhand -6.30523 -46.8624
rfingers 7.12502
rthumb 19.5389 -435.901
lclavicle 1.56077e-014 1.41137e-014
lhumerus -48.6382 -12.492 94.5543
lradius 66.6637
lwrist 14.0526
lhand -12.6558 -22.608
lfingers 7.12502
lthumb 13.425 6.93942
rfemur 0 0 0
rtibia 0
rfoot 0 0
rtoes 0
lfemur -4.70114 -7.3349 -12.8471
ltibia 22.365
lfoot -25.5258 16.5219
ltoes -54.0543
684
root -0.557052 18.6926 5.88802 2.70399 -2.75069 -2.22106
lowerback 0.994649 1.05261 -0.593476
upperback -1.89052 1.4062 0.662154
thorax -2.52697 0.720506 0.9667
lowerneck -12.4857 -2.35067 -2.46479
upperneck 27.1379 -3.74447 3.43606
head 10.9143 -1.55398 1.17549
rclavicle -8.49494e-015 -5.1684e-015
rhumerus -48.6042 5.99396 -89.5676
rradius 67.8175
rwrist 9.25827
rhand -7.37832 -45.6465
rfingers 7.12502
rthumb 18.5069 -434.786
lclavicle -8.49494e-015 -5.1684e-015
lhumerus -49.0155 -11.1749 94.6021
lradius 65.3232
lwrist 14.6197
lhand -13.591 -22.6365
lfingers 7.12502
lthumb 12.5235 6.96816
rfemur 0 0 0
rtibia 0
rfoot 0 0
rtoes 0
lfemur -4.52828 -7.43545 -12.892
ltibia 22.3065
lfoot -25.6134 16.4956
ltoes -53.9543
685
root -0.558093 18.6889 5.89712 2.58298 -2.67683 -2.18787
lowerback 0.988371 1.00751 -0.616999
upperback -1.86195 1.34719 0.74161
thorax -2.49529 0.692106 1.06374
lowerneck -12.495 -2.31344 -2.53292
upperneck 27.129 -3.68356 3.46877
head 10.9127 -1.52915 1.2069
rclavicle -2.8597e-014 -3.47873e-015
rhumerus -48.8405 4.95301 -89.0393
rradius 65.9832
rwrist 10.2994
rhand -7.50109 -44.7673
rfingers 7.12502
rthumb 18.3888 -433.918
lclavicle -2.8597e-014 -3.47873e-015
lhumerus -49.2101 -9.86717 94.5355
lradius 64.1822
lwrist 14.235
lhand -14.198 -21.4412
lfingers 7.12502
lthumb 11.9382 8.19842
rfemur 0 0 0
rtibia 0
rfoot 0 0
rtoes 0
lfemur -4.34245 -7.50292 -12.9448
ltibia 22.2419
lfoot -25.6546 16.5011
ltoes -54.075
686
root -0.55981 18.6853 5.90448 2.49833 -2.6555 -2.14547
lowerback 0.960384 0.999579 -0.632697
upperback -1.84313 1.3373 0.789233
thorax -2.46149 0.687761 1.12244
lowerneck -12.5367 -2.29341 -2.49506
upperneck 27.1425 -3.63646 3.37224
head 10.9215 -1.51464 1.17138
rclavicle -3.62316e-015 -3.27995e-015
rhumerus -48.9659 3.836 -88.4666
rradius 64.0543
rwrist 11.366
rhand -7.71211 -43.8188
rfingers 7.12502
rthumb 18.1858 -432.989
lclavicle -3.62316e-015 -3.27995e-015
lhumerus -49.3569 -8.78917 94.4927
lradius 62.8985
lwrist 14.1338
lhand -14.9895 -21.0028
lfingers 7.12502
lthumb 11.1749 8.67964
rfemur 0 0 0
rtibia 0
rfoot 0 0
rtoes 0
lfemur -4.19906 -7.53686 -13.0053
ltibia 22.1843
lfoot -25.682 16.5628
ltoes -54.2636
687
root -0.560961 18.6826 5.90952 2.44488 -2.65594 -2.14071
lowerback 0.927809 1.002 -0.60245
upperback -1.84057 1.34214 0.83048
thorax -2.44096 0.689944 1.14829
lowerneck -12.5631 -2.3022 -2.49764
upperneck 27.1675 -3.63651 3.32821
head 10.9353 -1.51964 1.15577
rclavicle -1.42814e-014 -5.56597e-015
rhumerus -49.0416 2.6682 -87.8679
rradius 62.0727
rwrist 12.408
rhand -8.13445 -42.7633
rfingers 7.12502
rthumb 17.7795 -431.97
lclavicle -1.42814e-014 -5.56597e-015
lhumerus -49.4771 -7.8502 94.4249
lradius 61.4693
lwrist 14.0133
lhand -15.7361 -21.182
lfingers 7.12502
lthumb 10.4547 8.53805
rfemur 0 0 0
rtibia 0
rfoot 0 0
rtoes 0
lfemur -4.08724 -7.61589 -13.023
ltibia 22.1325
lfoot -25.7337 16.5886
ltoes -54.2278
688
root -0.56213 18.6799 5.91362 2.37759 -2.65843 -2.16921
lowerback 0.935586 0.997474 -0.545385
upperback -1.84156 1.33857 0.888254
thorax -2.44635 0.687706 1.17557
lowerneck -12.5552 -2.308 -2.59707
upperneck 27.1819 -3.64076 3.39646
head 10.9427 -1.52354 1.19713
rclavicle 1.21569e-014 -6.85807e-015
rhumerus -49.0917 1.47913 -87.1934
rradius 60.0764
rwrist 13.4899
rhand -8.53626 -41.612
rfingers 7.12502
rthumb 17.3928 -430.854
lclavicle 1.21569e-014 -6.85807e-015
lhumerus -49.4985 -6.94951 94.3219
lradius 59.9059
lwrist 13.648
lhand -16.4096 -21.5737
lfingers 7.12502
lthumb 9.80495 8.17805
rfemur 0 0 0
rtibia 0
rfoot 0 0
rtoes 0
lfemur -3.96396 -7.68518 -12.9985
ltibia 22.0865
lfoot -25.8253 16.5277
ltoes -54.1046
689
root -0.564255 18.6781 5.91824 2.31118 -2.69479 -2.22437
lowerback 0.952789 1.0061 -0.444114
upperback -1.8514 1.35344 0.939811
thorax -2.46541 0.693855 1.17085
lowerneck -12.5536 -2.28173 -2.56817
upperneck 27.2364 -3.59565 3.33779
head 10.9595 -1.50663 1.17723
rclavicle 1.56978e-014 6.16232e-015
rhumerus -49.0928 0.238098 -86.4405
rradius 58.0247
rwrist 14.5739
rhand -8.51489 -40.6645
rfingers 7.12502
rthumb 17.4134 -429.904
lclavicle 1.56978e-014 6.16232e-015
lhumerus -49.4693 -6.1189 94.1734
lradius 58.259
lwrist 13.1501
lhand -17.0072 -21.9947
lfingers 7.12502
lthumb 9.22843 7.78336
rfemur 0 0 0
rtibia 0
rfoot 0 0
rtoes 0
lfemur -3.84204 -7.67754 -12.9407
ltibia 22.0498
lfoot -25.8834 16.4945
ltoes -54.1111
690
root -0.565784 18.6767 5.92281 2.24446 -2.73591 -2.22852
lowerback 0.93899 1.01269 -0.368096
upperback -1.85255 1.36422 0.956751
thorax -2.45769 0.697946 1.14555
lowerneck -12.5782 -2.24302 -2.40938
upperneck 27.3065 -3.52725 3.14786
head 10.9813 -1.48118 1.09036
rclavicle -5.90918e-015 -4.57205e-015
rhumerus -49.0371 -1.05771 -85.6362
rradius 55.8837
rwrist 15.5409
rhand -8.12142 -40.0723
rfingers 7.12502
rthumb 17.792 -429.278
lclavicle -5.90918e-015 -4.57205e-015
lhumerus -49.3957 -5.40228 93.9844
lradius 56.5301
lwrist 12.6045
lhand -17.5214 -22.4503
lfingers 7.12502
lthumb 8.7322 7.34904
rfemur 0 0 0
rtibia 0
rfoot 0 0
rtoes 0
lfemur -3.72501 -7.65447 -12.9494
ltibia 22.0184
lfoot -25.8532 16.5242
ltoes -54.1399
691
root -0.565521 18.6747 5.92675 2.17049 -2.75256 -2.21097
lowerback 0.908826 1.00314 -0.315233
upperback -1.84214 1.35292 0.978813
thorax -2.42904 0.691403 1.1396
lowerneck -12.56 -2.23349 -2.37758
upperneck 27.3424 -3.50192 3.07288
head 10.9882 -1.4754 1.06142
rclavicle 1.69262e-014 -1.86361e-014
rhumerus -48.967 -2.35543 -84.7574
rradius 53.6978
rwrist 16.4225
rhand -8.03217 -39.5467
rfingers 7.12502
rthumb 17.8779 -428.745
lclavicle 1.69262e-014 -1.86361e-014
lhumerus -49.2256 -4.67488 93.7682
lradius 54.6739
lwrist 11.9077
lhand -17.9811 -22.968
lfingers 7.12502
lthumb 8.28859 6.84944
rfemur 0 0 0
rtibia 0
rfoot 0 0
rtoes 0
lfemur -3.60823 -7.65952 -12.9882
ltibia 21.9886
lfoot -25.8285 16.5361
ltoes -54.1385
692
root -0.565158 18.6728 5.93069 2.09567 -2.7302 -2.21793
lowerback 0.88275 0.99648 -0.244255
upperback -1.83984 1.34593 1.00275
thorax -2.41076 0.686768 1.12511
lowerneck -12.447 -2.24831 -2.39895
upperneck 27.3618 -3.53301 3.1151
head 10.9753 -1.48784 1.07748
rclavicle 4.33483e-014 2.48481e-017
rhumerus -48.9373 -3.73595 -83.8021
rradius 51.5313
rwrist 17.3289
rhand -8.41501 -38.7025
rfingers 7.12502
rthumb 17.5095 -427.934
lclavicle 4.33483e-014 2.48481e-017
lhumerus -48.9321 -3.95954 93.5108
lradius 52.658
lwrist 10.9831
lhand -18.3867 -23.4443
lfingers 7.12502
lthumb 7.89713 6.3882
rfemur 0 0 0
rtibia 0
rfoot 0 0
rtoes 0
lfemur -3.49605 -7.68955 -12.9908
ltibia 21.9547
lfoot -25.8508 16.517
ltoes -54.1346
693
root -0.565943 18.6703 5.93426 2.01385 -2.69439 -2.21061
lowerback 0.878595 1.00749 -0.181985
upperback -1.84664 1.36198 1.0039
thorax -2.41432 0.693652 1.09094
lowerneck -12.3496 -2.27192 -2.38438
upperneck 27.4335 -3.58885 3.16403
head 10.9855 -1.50639 1.0867
rclavicle 1.59354e-014 -9.59136e-015
rhumerus -48.9656 -5.21621 -82.7822
rradius 49.4537
rwrist 18.2728
rhand -8.89671 -37.8584
rfingers 7.12502
rthumb 17.0459 -427.131
lclavicle 1.59354e-014 -9.59136e-015
lhumerus -48.5158 -3.32921 93.1972
lradius 50.4986
lwrist 9.81553
lhand -18.6352 -23.8446
lfingers 7.12502
lthumb 7.65729 5.99673
rfemur 0 0 0
rtibia 0
rfoot 0 0
rtoes 0
lfemur -3.38134 -7.69787 -13.0011
ltibia 21.923
lfoot -25.8746 16.4606
ltoes -54.0709
694
root -0.566356 18.6679 5.93716 1.93251 -2.66627 -2.19271
lowerback 0.874965 1.02044 -0.106344
upperback -1.83922 1.38058 0.996687
thorax -2.40303 0.701399 1.04075
lowerneck -12.3419 -2.28707 -2.33119
upperneck 27.5123 -3.60522 3.09008
head 11.0117 -1.51661 1.04907
rclavicle -1.87292e-015 -9.41742e-015
rhumerus -49.0113 -6.68331 -81.7507
rradius 47.6047
rwrist 19.4334
rhand -9.13153 -37.3714
rfingers 7.12502
rthumb 16.8198 -426.663
lclavicle -1.87292e-015 -9.41742e-015
lhumerus -47.9959 -2.75144 92.8439
lradius 48.2469
lwrist 8.50819
lhand -18.7121 -24.2511
lfingers 7.12502
lthumb 7.583 5.59295
rfemur 0 0 0
rtibia 0
rfoot 0 0
rtoes 0
lfemur -3.27313 -7.70616 -13.0264
ltibia 21.9013
lfoot -25.9054 16.3961
ltoes -53.9634
695
root -0.566203 18.6668 5.93898 1.87562 -2.62258 -2.17822
lowerback 0.849976 1.01397 -0.0208709
upperback -1.82415 1.37355 1.00258
thorax -2.37144 0.696257 0.999762
lowerneck -12.3228 -2.28532 -2.3027
upperneck 27.5191 -3.57064 2.95336
head 11.0059 -1.51445 0.999377
rclavicle 1.12733e-014 2.09966e-015
rhumerus -49.1168 -7.97817 -80.7557
rradius 46.0819
rwrist 20.7609
rhand -9.02317 -37.2142
rfingers 7.12502
rthumb 16.9241 -426.497
lclavicle 1.12733e-014 2.09966e-015
lhumerus -47.4186 -2.1539 92.467
lradius 45.9839
lwrist 7.05361
lhand -18.7503 -24.656
lfingers 7.12502
lthumb 7.54615 5.18937
rfemur 0 0 0
rtibia 0
rfoot 0 0
rtoes 0
lfemur -3.20614 -7.6916 -13.0409
ltibia 21.884
lfoot -25.8723 16.342
ltoes -53.9776
